<?xml version="1.0" encoding="iso-8859-1"?>
<!-- Generator: Adobe Illustrator 19.0.0, SVG Export Plug-In . SVG Version: 6.00 Build 0)  -->
<svg version="1.1" id="Capa_1" xmlns="http://www.w3.org/2000/svg" xmlns:xlink="http://www.w3.org/1999/xlink" x="0px" y="0px"
	 viewBox="0 0 512 512" style="enable-background:new 0 0 512 512;" xml:space="preserve">
<g>
	<g>
		<path d="M239.51,344.449c-4.144,0-7.503,3.359-7.503,7.503v144.981H15.126V156.024c0-4.143-3.359-7.503-7.503-7.503
			c-4.144,0-7.503,3.359-7.503,7.503v348.412c0,4.143,3.358,7.503,7.503,7.503H239.51c4.144,0,7.503-3.359,7.503-7.503V351.952
			C247.013,347.807,243.653,344.449,239.51,344.449z"/>
	</g>
</g>
<g>
	<g>
		<path d="M239.51,0H7.623C3.479,0,0.121,3.359,0.121,7.503v118.511c0,4.143,3.358,7.503,7.503,7.503
			c4.143,0,7.503-3.359,7.503-7.503V15.005h216.882v306.937c0,4.143,3.358,7.503,7.503,7.503c4.144,0,7.503-3.359,7.503-7.503V7.503
			C247.013,3.359,243.653,0,239.51,0z"/>
	</g>
</g>
<g>
	<g>
		<path d="M504.377,145.534c4.144,0,7.503-3.359,7.503-7.502V7.503c0-4.143-3.358-7.503-7.503-7.503H272.49
			c-4.144,0-7.503,3.359-7.503,7.503v277.759c0,4.143,3.358,7.503,7.503,7.503h231.887c4.144,0,7.503-3.359,7.503-7.503v-117.22
			c0-4.143-3.358-7.503-7.503-7.503c-4.143,0-7.502,3.359-7.502,7.503v109.717H279.992V15.005h216.882v123.027
			C496.875,142.175,500.234,145.534,504.377,145.534z"/>
	</g>
</g>
<g>
	<g>
		<path d="M503.774,310.46H271.886c-4.144,0-7.503,3.359-7.503,7.503v186.535c0,4.143,3.358,7.503,7.503,7.503h231.888
			c4.144,0,7.502-3.359,7.502-7.503V317.963C511.276,313.818,507.917,310.46,503.774,310.46z M496.271,496.995L496.271,496.995
			H279.388v-171.53h216.883V496.995z"/>
	</g>
</g>
<g>
	<g>
		<path d="M387.829,333.979c-42.596,0-77.251,34.654-77.251,77.251c0.001,42.596,34.655,77.251,77.251,77.251
			s77.251-34.654,77.251-77.251C465.08,368.633,430.425,333.979,387.829,333.979z M387.829,473.476
			c-34.322,0-62.246-27.923-62.246-62.246c0.001-34.322,27.924-62.246,62.246-62.246c34.322,0,62.246,27.923,62.246,62.246
			C450.075,445.552,422.152,473.476,387.829,473.476z"/>
	</g>
</g>
<g>
	<g>
		<path d="M475.616,145.143V51.849c0-4.143-3.359-7.503-7.502-7.503H308.753c-4.144,0-7.503,3.359-7.503,7.503v94.356v15.9
			c0,4.143,3.358,7.503,7.503,7.503h159.362c4.143,0,7.502-3.359,7.502-7.503L475.616,145.143L475.616,145.143z M316.257,59.352
			h144.355v69.043l-42.083-37.549c-2.845-2.539-7.145-2.539-9.989,0l-27.486,24.525l-19.509-17.408
			c-2.845-2.539-7.145-2.539-9.989,0l-35.298,31.495V59.352z M316.255,154.602v-5.037l40.292-35.951l19.504,17.403
			c0.002,0.002,0.003,0.003,0.005,0.005l26.428,23.58H316.255z M460.612,154.602L460.612,154.602h-35.59l-32.701-29.179
			l21.212-18.927l47.079,42.006V154.602z"/>
	</g>
</g>
<g>
	<g>
		<path d="M381.474,62.075c-11.088,0-20.108,9.02-20.108,20.107c0,11.087,9.02,20.107,20.108,20.107
			c11.087,0,20.107-9.02,20.107-20.107C401.581,71.095,392.561,62.075,381.474,62.075z M381.474,87.283
			c-2.814,0-5.103-2.289-5.103-5.102s2.289-5.102,5.103-5.102c2.813,0,5.102,2.289,5.102,5.102S384.287,87.283,381.474,87.283z"/>
	</g>
</g>
<g>
	<g>
		<path d="M410.916,403.727h-15.584v-15.585c0-4.143-3.358-7.503-7.503-7.503c-4.144,0-7.503,3.359-7.503,7.503v15.585h-15.584
			c-4.144,0-7.503,3.359-7.503,7.503s3.359,7.502,7.503,7.502h15.584v15.584c0,4.143,3.358,7.503,7.503,7.503
			c4.144,0,7.503-3.359,7.503-7.503v-15.584h15.584c4.144,0,7.503-3.359,7.503-7.502S415.06,403.727,410.916,403.727z"/>
	</g>
</g>
<g>
	<g>
		<path d="M468.114,189.297H308.753c-4.144,0-7.503,3.359-7.503,7.503c0,4.143,3.358,7.502,7.503,7.502h159.362
			c4.143,0,7.502-3.359,7.502-7.502C475.616,192.656,472.258,189.297,468.114,189.297z"/>
	</g>
</g>
<g>
	<g>
		<path d="M468.114,227.411H308.753c-4.144,0-7.503,3.359-7.503,7.503s3.358,7.503,7.503,7.503h159.362
			c4.143,0,7.502-3.359,7.502-7.503C475.616,230.77,472.258,227.411,468.114,227.411z"/>
	</g>
</g>
<g>
	<g>
		<path d="M203.247,206.985H43.886c-4.143,0-7.502,3.359-7.502,7.503s3.358,7.503,7.502,7.503h159.361
			c4.144,0,7.502-3.359,7.502-7.503S207.391,206.985,203.247,206.985z"/>
	</g>
</g>
<g>
	<g>
		<path d="M203.247,245.098H43.886c-4.144,0-7.502,3.359-7.502,7.503s3.359,7.503,7.502,7.503h159.361
			c4.144,0,7.502-3.359,7.502-7.503S207.391,245.098,203.247,245.098z"/>
	</g>
</g>
<g>
	<g>
		<path d="M203.247,283.212H43.886c-4.144,0-7.502,3.359-7.502,7.503s3.359,7.503,7.502,7.503h159.361
			c4.144,0,7.502-3.359,7.502-7.503S207.391,283.212,203.247,283.212z"/>
	</g>
</g>
<g>
	<g>
		<path d="M203.247,321.326H43.886c-4.144,0-7.502,3.359-7.502,7.503s3.359,7.503,7.502,7.503h159.361
			c4.144,0,7.502-3.359,7.502-7.503S207.391,321.326,203.247,321.326z"/>
	</g>
</g>
<g>
	<g>
		<path d="M203.247,359.439H43.886c-4.144,0-7.502,3.359-7.502,7.503s3.359,7.503,7.502,7.503h159.361
			c4.144,0,7.502-3.359,7.502-7.503S207.391,359.439,203.247,359.439z"/>
	</g>
</g>
<g>
	<g>
		<path d="M203.247,397.553H43.886c-4.144,0-7.502,3.359-7.502,7.503s3.359,7.503,7.502,7.503h159.361
			c4.144,0,7.502-3.359,7.502-7.503S207.391,397.553,203.247,397.553z"/>
	</g>
</g>
<g>
	<g>
		<path d="M203.247,435.667H43.886c-4.144,0-7.502,3.359-7.502,7.502s3.359,7.503,7.502,7.503h159.361
			c4.144,0,7.502-3.359,7.502-7.503S207.391,435.667,203.247,435.667z"/>
	</g>
</g>
<g>
	<g>
		<path d="M179.302,62.034H67.831c-4.144,0-7.502,3.359-7.502,7.502v17.728c0,4.143,3.358,7.503,7.502,7.503
			c4.144,0,7.503-3.359,7.503-7.503V77.039h40.731v88.925h-14.83c-4.144,0-7.503,3.359-7.503,7.502s3.358,7.503,7.503,7.503H145.9
			c4.144,0,7.502-3.359,7.502-7.503s-3.358-7.502-7.502-7.502h-14.831V77.039h40.732v10.225c-0.001,4.143,3.358,7.503,7.502,7.503
			c4.144,0,7.502-3.359,7.502-7.503V69.536C186.805,65.393,183.446,62.034,179.302,62.034z"/>
	</g>
</g>
<g>
</g>
<g>
</g>
<g>
</g>
<g>
</g>
<g>
</g>
<g>
</g>
<g>
</g>
<g>
</g>
<g>
</g>
<g>
</g>
<g>
</g>
<g>
</g>
<g>
</g>
<g>
</g>
<g>
</g>
</svg>
