<svg enable-background="new 0 0 24 24" height="512" viewBox="0 0 24 24" width="512" xmlns="http://www.w3.org/2000/svg"><g id="Color"><g><path d="m1.75 6h5.5c.965 0 1.75-.785 1.75-1.75v-2.5c0-.965-.785-1.75-1.75-1.75h-5.5c-.965 0-1.75.785-1.75 1.75v2.5c0 .965.785 1.75 1.75 1.75z" fill="#cfd8dc"/></g><g><path d="m1.75 15h5.5c.965 0 1.75-.785 1.75-1.75v-2.5c0-.965-.785-1.75-1.75-1.75h-5.5c-.965 0-1.75.785-1.75 1.75v2.5c0 .965.785 1.75 1.75 1.75z" fill="#cfd8dc"/></g></g><g id="regular"><g><path d="m23.25 18h-22.5c-.414 0-.75-.336-.75-.75s.336-.75.75-.75h22.5c.414 0 .75.336.75.75s-.336.75-.75.75z"/></g><g><path d="m23.25 21h-22.5c-.414 0-.75-.336-.75-.75s.336-.75.75-.75h22.5c.414 0 .75.336.75.75s-.336.75-.75.75z"/></g><g><path d="m23.25 24h-22.5c-.414 0-.75-.336-.75-.75s.336-.75.75-.75h22.5c.414 0 .75.336.75.75s-.336.75-.75.75z"/></g><g><path d="m7.25 6h-5.5c-.965 0-1.75-.785-1.75-1.75v-2.5c0-.965.785-1.75 1.75-1.75h5.5c.965 0 1.75.785 1.75 1.75v2.5c0 .965-.785 1.75-1.75 1.75zm-5.5-4.5c-.138 0-.25.112-.25.25v2.5c0 .138.112.25.25.25h5.5c.138 0 .25-.112.25-.25v-2.5c0-.138-.112-.25-.25-.25z"/></g><g><path d="m7.25 15h-5.5c-.965 0-1.75-.785-1.75-1.75v-2.5c0-.965.785-1.75 1.75-1.75h5.5c.965 0 1.75.785 1.75 1.75v2.5c0 .965-.785 1.75-1.75 1.75zm-5.5-4.5c-.138 0-.25.112-.25.25v2.5c0 .138.112.25.25.25h5.5c.138 0 .25-.112.25-.25v-2.5c0-.138-.112-.25-.25-.25z"/></g><g><path d="m23.25 2h-11.5c-.414 0-.75-.336-.75-.75s.336-.75.75-.75h11.5c.414 0 .75.336.75.75s-.336.75-.75.75z"/></g><g><path d="m23.25 5h-11.5c-.414 0-.75-.336-.75-.75s.336-.75.75-.75h11.5c.414 0 .75.336.75.75s-.336.75-.75.75z"/></g><g><path d="m23.25 11h-11.5c-.414 0-.75-.336-.75-.75s.336-.75.75-.75h11.5c.414 0 .75.336.75.75s-.336.75-.75.75z"/></g><g><path d="m23.25 14h-11.5c-.414 0-.75-.336-.75-.75s.336-.75.75-.75h11.5c.414 0 .75.336.75.75s-.336.75-.75.75z"/></g></g></svg>